<?xml version="1.0" encoding="UTF-8" standalone="no"?><!DOCTYPE svg PUBLIC "-//W3C//DTD SVG 1.1//EN" "http://www.w3.org/Graphics/SVG/1.1/DTD/svg11.dtd"><svg width="100%" height="100%" viewBox="0 0 395 100" version="1.1" xmlns="http://www.w3.org/2000/svg" xmlns:xlink="http://www.w3.org/1999/xlink" xml:space="preserve" xmlns:serif="http://www.serif.com/" style="fill-rule:evenodd;clip-rule:evenodd;stroke-linejoin:round;stroke-miterlimit:2;"><path d="M64.137,1.263c-4.9,2.1 -5.8,6.6 -2.3,11c2.7,3.4 7.7,3.6 10.7,0.3c3.6,-3.8 2.8,-8.8 -1.9,-11.2c-3.3,-1.8 -2.6,-1.8 -6.5,-0.1Z" style="fill:#536b7b;fill-rule:nonzero;"/><path d="M329.237,0.863c-7.6,3 -5.6,14 2.5,14c4.2,-0 7.3,-3 7.2,-7c-0.1,-5.2 -5.2,-8.9 -9.7,-7Z" style="fill:#536b7b;fill-rule:nonzero;"/><path d="M18.037,23.263c-16.6,5.4 -23.4,28 -13.3,43.9c7.5,11.9 26.4,13 37.5,2.2c2.5,-2.5 4.5,-5.1 4.5,-6c-0,-2.2 -0.7,-1.9 -4.1,1.9c-11.9,13.7 -30.9,2.6 -30.9,-18.1l-0,-4.3l35,-0l-0,-3.8c-0,-5.7 -3.8,-12.3 -8.3,-14.6c-5,-2.4 -15,-3 -20.4,-1.2Zm12.6,2.6c2.1,1.1 3.7,4.8 4.5,10.2l0.5,3.8l-11.5,-0c-12.7,-0 -12.8,-0 -9.1,-6.5c3.8,-6.7 10.8,-10.1 15.6,-7.5Z" style="fill:#536b7b;fill-rule:nonzero;"/><path d="M103.037,23.263c-6.3,2.1 -11.8,7 -14.9,13.3c-5.7,11.6 -2.9,28 5.8,34.6c7.6,5.7 19.6,7.2 29,3.7c9.7,-3.6 18.2,-12.2 31.3,-31.5c11.8,-17.4 19.2,-22 25.6,-15.9c4.2,4 4.9,7.8 4.9,26.5c-0,17.2 -0.3,18.4 -4.5,20.7c-1.5,0.9 1,1.1 11,1.2l13,-0l-3.5,-1.9l-3.5,-1.8l-0.6,-18.4c-0.3,-11.3 -1,-19.6 -1.8,-21.4c-5.2,-12.5 -20.8,-14.1 -31.8,-3.2l-4.3,4.1l-0,-10.4l-9.2,-0c-7.3,0.1 -8.9,0.3 -7.3,1.2c4,2.1 4.5,3.8 4.5,15.4l-0,11.2l-4.7,5.3c-10.1,11.3 -16.6,15.2 -25.3,15.2c-11.6,-0 -18.5,-7.5 -19.7,-21.4l-0.6,-6.9l35.3,-0l-0,-3.8c-0,-5.7 -3.8,-12.3 -8.3,-14.6c-5,-2.4 -15,-3 -20.4,-1.2Zm13.4,3.1c1.3,0.9 2.5,3.1 2.8,5.3c0.3,2 0.8,4.7 1.1,5.9c0.4,2.3 0.3,2.3 -11.1,2.3c-12.8,-0 -12.9,-0 -9.2,-6.5c4.1,-7.2 11.5,-10.4 16.4,-7Z" style="fill:#536b7b;fill-rule:nonzero;"/><path d="M228.037,23.863c-15.7,6.3 -21.6,30.5 -10.8,44.7c5.9,7.6 19,10.5 28.5,6.2c4.8,-2.1 13,-9.5 13,-11.6c-0,-2.2 -1.4,-1.5 -4.2,2.1c-3.9,4.9 -10.6,7.3 -15.9,5.7c-9.1,-2.7 -14.9,-11.7 -14.9,-23.3l-0,-4.8l17.3,-0.2l17.2,-0.3l0.3,-3.5c0.4,-5.3 -3.4,-12.1 -8.2,-14.4c-5.8,-2.8 -15.9,-3.1 -22.3,-0.6Zm14.9,2.4c2.2,1.7 3.8,5.9 3.8,10.2l-0,3.4l-11,-0c-12,-0 -12.5,-0.3 -9.6,-5.8c1.6,-3 6.3,-7.7 8.6,-8.5c2.7,-1 6.5,-0.7 8.2,0.7Z" style="fill:#536b7b;fill-rule:nonzero;"/><path d="M281.637,23.363c-6.4,2.1 -10.9,7.2 -10.9,12.6c-0,7.6 4,11.8 17.5,18.7c8,4 11.5,7.6 11.5,11.8c-0,4.6 -3.8,7.4 -10,7.4c-7.3,-0 -13,-5.9 -13,-13.5c-0,-3.3 -1.3,-3.2 -4.4,0.6c-7.4,8.8 2,16.8 18.7,15.7c12.3,-0.8 18.7,-5.3 19.5,-13.8c0.7,-8.1 -2.2,-11.5 -15.8,-18.5c-6.2,-3.1 -12,-6.5 -13.1,-7.6c-2.8,-2.8 -2.4,-6.3 1.2,-9.3c6.1,-5.2 14.6,-2.1 17.6,6.5c2,5.5 3,5.9 6.1,2.6c8,-8.5 -10,-18 -24.9,-13.2Z" style="fill:#536b7b;fill-rule:nonzero;"/><path d="M366.737,22.763c-10.7,3.3 -15.6,11.3 -11.6,18.9c2,3.8 6.3,7.6 11.6,10.2c8.6,4.3 15.1,9 16.1,11.7c2.9,7.7 -7.4,13.3 -16.1,8.8c-3.4,-1.7 -4.9,-4.2 -6.4,-10.3l-1.1,-4.4l-2.7,2.5c-8.1,7.5 -1.9,15.5 12.8,16.5c16.8,1.1 28.2,-7.9 24.4,-19.2c-1.6,-4.9 -6.9,-9.1 -17.5,-14.1c-13.3,-6.1 -16,-10.6 -9.9,-16.3c6.2,-5.6 18.4,0.8 18.4,9.8c-0,2.4 1.7,2.6 4.8,0.4c2.8,-1.9 2.9,-6.3 0.1,-9.7c-3.4,-4.5 -15.7,-7 -22.9,-4.8Z" style="fill:#536b7b;fill-rule:nonzero;"/><path d="M55.537,22.863l6.2,5.8l-0.1,28.9c-0,32.6 -0.4,34.7 -6.1,37.8c-3.3,1.7 -4.1,1.8 -7.3,0.6c-4.6,-1.6 -5.6,-0.8 -1.9,1.5c6.9,4.6 19.6,0.7 24.2,-7.4c2.1,-3.9 2.2,-4.7 2.2,-35.6l-0,-31.6l-17.2,-0Z" style="fill:#536b7b;fill-rule:nonzero;"/><path d="M321.237,24.063c4.3,2.3 4.5,3.3 4.5,25.8c-0,23 -0.1,23.5 -5,25.3c-0.8,0.3 4.1,0.5 11,0.5c6.9,-0 11.8,-0.2 11,-0.5c-5,-1.8 -5,-2 -5,-28l-0,-24.3l-9.2,-0c-7.3,0.1 -8.9,0.3 -7.3,1.2Z" style="fill:#536b7b;fill-rule:nonzero;"/><path d="M150.937,53.863c-3.8,5.4 -4.2,6.5 -4.2,12c-0,5.7 -0.2,6.1 -3.2,8l-3.3,2l12.5,-0.1c6.9,-0 11.8,-0.3 11,-0.6c-4.4,-1.6 -5,-3.3 -5,-13.9c-0,-15.7 -1.2,-16.8 -7.8,-7.4Z" style="fill:#536b7b;fill-rule:nonzero;"/></svg>